# xmcd
#
# Track frame offsets: 
#        150
#        14865
#        27216
#        39943
#        52291
#        63039
#        76808
#        89264
#        100957
#        115124
#        128632
#        143113
#        156139
#        169602
#        181976
#        195109
#        208539
#        220932
#        234882
#        248462
#        262545
#        275094
#        287888
#        301231
#
# Disc length: 4187 seconds
#
# Revision: 0
# Processed by: cddbd v1.5.2PL0 Copyright (c) Steve Scherf et al.
# Submitted via: ExactAudioCopyFreeDBPlugin 1.0
#
DISCID=3b105918
DTITLE=Billie Holiday - The Complete Masters CD5
DYEAR=1900
DGENRE=
TTITLE0=Any Old Time
TTITLE1=The Very Thought of You
TTITLE2=I Can't Get Started
TTITLE3=I've Got a Date with a Dream
TTITLE4=You Can't Be Mine
TTITLE5=Everybody's Laughing
TTITLE6=Here It is Tomorrow Again
TTITLE7=Say It with a Kiss
TTITLE8=April in My Heart
TTITLE9=I'll Never Fail You
TTITLE10=They Say
TTITLE11=You're So Desirable
TTITLE12=You're Gonna See a Lot of Me
TTITLE13=Hello My Darling
TTITLE14=Let's Dream in the Moonlight
TTITLE15=That's All I Ask of You
TTITLE16=Dream of Life
TTITLE17=What Shall I Say?
TTITLE18=It's Easy to Blame the Weather
TTITLE19=More Than You Know
TTITLE20=Sugar (That Sugar Baby O' Mine)
TTITLE21=You're Too Lovely to Last
TTITLE22=Under a Blue Jungle Moon
TTITLE23=Everything Happens for the Best
EXTD=
EXTT0=
EXTT1=
EXTT2=
EXTT3=
EXTT4=
EXTT5=
EXTT6=
EXTT7=
EXTT8=
EXTT9=
EXTT10=
EXTT11=
EXTT12=
EXTT13=
EXTT14=
EXTT15=
EXTT16=
EXTT17=
EXTT18=
EXTT19=
EXTT20=
EXTT21=
EXTT22=
EXTT23=
PLAYORDER=
